<svg width="223" height="54" viewBox="0 0 223 54" fill="none" xmlns="http://www.w3.org/2000/svg">
<g filter="url(#filter0_d_1_64)">
<rect x="4" width="214.059" height="45.2215" rx="6" fill="#2B2B2C"/>
<path d="M21.4163 29.9959C22.1986 29.5428 22.1999 28.0757 21.4193 26.719C20.6386 25.3625 19.3716 24.6301 18.5894 25.0832C17.8072 25.5363 17.8059 27.0034 18.5865 28.36C19.3672 29.7166 20.6341 30.4491 21.4163 29.9959Z" fill="#F26E7E"/>
<path d="M37.4153 28.361C38.196 27.0045 38.1947 25.5374 37.4125 25.0842C36.6303 24.6311 35.3632 25.3634 34.5825 26.7201C33.802 28.0766 33.8032 29.5437 34.5856 29.9969C35.3677 30.4501 36.6347 29.7178 37.4153 28.361Z" fill="#8A3391"/>
<path d="M26.7471 33.0874C27.5293 32.6342 27.5306 31.1671 26.7501 29.8106C25.9694 28.4539 24.7024 27.7215 23.9202 28.1747C23.138 28.6278 23.1367 30.095 23.9173 31.4515C24.6979 32.8083 25.9649 33.5405 26.7471 33.0874Z" fill="#F26E7E"/>
<path d="M32.0856 31.4483C32.8663 30.0918 32.8651 28.6247 32.0828 28.1715C31.3006 27.7184 30.0335 28.4506 29.2529 29.8074C28.4724 31.164 28.4737 32.6311 29.2559 33.0842C30.0381 33.5374 31.3051 32.805 32.0856 31.4483Z" fill="#8A3391"/>
<path d="M27.9975 15.2821C29.5588 15.2821 30.8244 14.5474 30.8244 13.641C30.8244 12.7347 29.5588 12 27.9975 12C26.4362 12 25.1705 12.7347 25.1705 13.641C25.1705 14.5474 26.4362 15.2821 27.9975 15.2821Z" fill="#F7BF2A"/>
<path d="M21.4145 23.8139C22.1967 23.3607 22.198 21.8937 21.4174 20.537C20.6367 19.1805 19.3698 18.4481 18.5875 18.9012C17.8053 19.3544 17.804 20.8215 18.5846 22.1781C19.3653 23.5347 20.6322 24.2671 21.4145 23.8139Z" fill="#F26E7E"/>
<path d="M22.6679 18.3662C24.2292 18.3662 25.4949 17.6314 25.4949 16.725C25.4949 15.8188 24.2292 15.084 22.6679 15.084C21.1067 15.084 19.841 15.8188 19.841 16.725C19.841 17.6314 21.1067 18.3662 22.6679 18.3662Z" fill="#F7BF2A"/>
<path d="M37.4124 22.1813C38.193 20.8247 38.1916 19.3576 37.4095 18.9044C36.6272 18.4513 35.3602 19.1836 34.5797 20.5403C33.799 21.8968 33.8003 23.364 34.5825 23.8172C35.3648 24.2702 36.6317 23.5379 37.4124 22.1813Z" fill="#8A3391"/>
<path d="M33.3342 18.3662C34.8954 18.3662 36.1611 17.6314 36.1611 16.725C36.1611 15.8188 34.8954 15.084 33.3342 15.084C31.7729 15.084 30.5073 15.8188 30.5073 16.725C30.5073 17.6314 31.7729 18.3662 33.3342 18.3662Z" fill="#F7BF2A"/>
<path d="M26.7453 26.9066C27.5276 26.4533 27.5289 24.9862 26.7482 23.6297C25.9676 22.273 24.7007 21.5406 23.9184 21.9938C23.1361 22.447 23.1348 23.914 23.9155 25.2707C24.6962 26.6273 25.9631 27.3597 26.7453 26.9066Z" fill="#F26E7E"/>
<path d="M32.0827 25.2685C32.8633 23.912 32.862 22.4449 32.0797 21.9917C31.2975 21.5385 30.0305 22.2709 29.2499 23.6275C28.4693 24.9841 28.4705 26.4512 29.2528 26.9044C30.0349 27.3575 31.302 26.6252 32.0827 25.2685Z" fill="#8A3391"/>
<path d="M27.9975 21.4576C29.5588 21.4576 30.8244 20.7229 30.8244 19.8166C30.8244 18.9102 29.5588 18.1756 27.9975 18.1756C26.4362 18.1756 25.1705 18.9102 25.1705 19.8166C25.1705 20.7229 26.4362 21.4576 27.9975 21.4576Z" fill="#F7BF2A"/>
<path d="M50 14.776V27.376H54.914C56.624 27.376 58.046 26.764 59.18 25.558C60.314 24.334 60.89 22.84 60.89 21.076C60.89 19.312 60.314 17.818 59.18 16.612C58.046 15.388 56.624 14.776 54.914 14.776H50ZM51.674 25.792V16.36H54.914C56.192 16.36 57.254 16.81 58.064 17.71C58.874 18.61 59.288 19.726 59.288 21.076C59.288 22.426 58.874 23.542 58.064 24.442C57.254 25.342 56.192 25.792 54.914 25.792H51.674Z" fill="white"/>
<path d="M71.3979 23.596C71.4339 23.362 71.4519 23.128 71.4519 22.894C71.4519 21.58 71.0379 20.464 70.1919 19.546C69.3639 18.61 68.2839 18.142 66.9699 18.142C65.5839 18.142 64.4499 18.592 63.5679 19.492C62.6859 20.392 62.2539 21.526 62.2539 22.876C62.2539 24.244 62.7039 25.378 63.5859 26.278C64.4859 27.16 65.6559 27.61 67.0779 27.61C68.8419 27.61 70.1559 26.926 71.0379 25.576L69.7059 24.82C69.1659 25.702 68.3019 26.134 67.1139 26.134C65.4039 26.134 64.1619 25.198 63.8559 23.596H71.3979ZM66.9699 19.618C68.4099 19.618 69.5979 20.518 69.8679 22.228H63.8559C64.1259 20.644 65.2959 19.618 66.9699 19.618Z" fill="white"/>
<path d="M78.2201 18.142C76.7261 18.142 75.5921 18.736 74.8181 19.924V18.376H73.2521V30.976H74.8181V25.828C75.5921 27.016 76.7261 27.61 78.2201 27.61C79.4801 27.61 80.5601 27.16 81.4421 26.242C82.3241 25.324 82.7741 24.19 82.7741 22.876C82.7741 21.562 82.3241 20.446 81.4421 19.528C80.5601 18.61 79.4801 18.142 78.2201 18.142ZM78.0221 26.098C77.1041 26.098 76.3481 25.792 75.7361 25.18C75.1241 24.55 74.8181 23.794 74.8181 22.876C74.8181 21.958 75.1241 21.202 75.7361 20.59C76.3481 19.96 77.1041 19.654 78.0221 19.654C78.9221 19.654 79.6781 19.96 80.2901 20.59C80.9021 21.202 81.2081 21.958 81.2081 22.876C81.2081 23.794 80.9021 24.55 80.2901 25.18C79.6781 25.792 78.9221 26.098 78.0221 26.098Z" fill="white"/>
<path d="M86.2087 27.376V14.236H84.6427V27.376H86.2087Z" fill="white"/>
<path d="M96.1938 26.242C97.1118 25.324 97.5798 24.208 97.5798 22.876C97.5798 21.544 97.1118 20.428 96.1938 19.51C95.2758 18.592 94.1418 18.142 92.8278 18.142C91.5138 18.142 90.3798 18.592 89.4618 19.51C88.5438 20.428 88.0938 21.544 88.0938 22.876C88.0938 24.208 88.5438 25.324 89.4618 26.242C90.3798 27.16 91.5138 27.61 92.8278 27.61C94.1418 27.61 95.2758 27.16 96.1938 26.242ZM92.8278 26.08C91.9458 26.08 91.1898 25.774 90.5778 25.162C89.9658 24.55 89.6598 23.794 89.6598 22.876C89.6598 21.958 89.9658 21.202 90.5778 20.59C91.1898 19.978 91.9458 19.672 92.8278 19.672C93.7278 19.672 94.4838 19.978 95.0958 20.59C95.7078 21.202 96.0138 21.958 96.0138 22.876C96.0138 23.794 95.7078 24.55 95.0958 25.162C94.4838 25.774 93.7278 26.08 92.8278 26.08Z" fill="white"/>
<path d="M102.764 25.432L99.7043 18.376H98.0303L101.954 27.34L101.792 27.682C101.27 28.996 100.46 29.608 99.3623 29.518V30.976C101.162 31.102 102.584 29.968 103.358 27.934L107.03 18.376H105.356L102.764 25.432Z" fill="white"/>
<path d="M121.46 25.234L119.336 18.376H117.824L115.7 25.216L113.72 18.376H112.082L114.872 27.376H116.474L118.58 20.716L120.686 27.376H122.288L125.078 18.376H123.44L121.46 25.234Z" fill="white"/>
<path d="M127.482 16.738C128.058 16.738 128.526 16.27 128.526 15.694C128.526 15.118 128.058 14.632 127.482 14.632C126.888 14.632 126.42 15.118 126.42 15.694C126.42 16.27 126.888 16.738 127.482 16.738ZM128.256 27.376V18.376H126.69V27.376H128.256Z" fill="white"/>
<path d="M135.541 18.376H133.147V15.856L131.581 16.324V18.376H129.799V19.888H131.581V24.766C131.581 26.998 132.805 27.736 135.541 27.376V25.972C133.939 26.044 133.147 26.152 133.147 24.766V19.888H135.541V18.376Z" fill="white"/>
<path d="M141.877 18.142C140.563 18.142 139.591 18.646 138.961 19.672V14.776H137.395V27.376H138.961V22.606C138.961 20.59 140.005 19.636 141.571 19.636C142.957 19.636 143.803 20.482 143.803 21.94V27.376H145.369V21.85C145.369 19.564 143.983 18.142 141.877 18.142Z" fill="white"/>
<path d="M152.217 14.776V27.376H153.891V22.876H156.789C157.959 22.876 158.913 22.48 159.687 21.706C160.461 20.932 160.857 19.96 160.857 18.826C160.857 17.674 160.461 16.72 159.687 15.946C158.913 15.172 157.959 14.776 156.789 14.776H152.217ZM153.891 21.31V16.342H156.789C158.175 16.342 159.201 17.386 159.201 18.826C159.201 19.528 158.967 20.122 158.517 20.608C158.067 21.076 157.491 21.31 156.789 21.31H153.891Z" fill="white"/>
<path d="M168.882 23.146C168.882 25.162 167.838 26.116 166.272 26.116C164.886 26.116 164.04 25.27 164.04 23.812V18.376H162.474V23.902C162.474 26.188 163.86 27.61 165.966 27.61C167.28 27.61 168.252 27.106 168.882 26.08V27.376H170.448V18.376H168.882V23.146Z" fill="white"/>
<path d="M174.398 27.376V14.236H172.832V27.376H174.398Z" fill="white"/>
<path d="M182.997 23.146C182.997 25.162 181.953 26.116 180.387 26.116C179.001 26.116 178.155 25.27 178.155 23.812V18.376H176.589V23.902C176.589 26.188 177.975 27.61 180.081 27.61C181.395 27.61 182.367 27.106 182.997 26.08V27.376H184.563V18.376H182.997V23.146Z" fill="white"/>
<path d="M196.667 18.142C195.407 18.142 194.471 18.646 193.841 19.672C193.283 18.646 192.401 18.142 191.195 18.142C190.025 18.142 189.125 18.628 188.513 19.582V18.376H186.947V27.376H188.513V22.372C188.513 20.554 189.503 19.636 190.817 19.636C191.987 19.636 192.725 20.446 192.725 21.832V27.376H194.291V22.372C194.291 20.518 195.155 19.636 196.505 19.636C197.711 19.636 198.485 20.446 198.485 21.832V27.376H200.051V21.778C200.051 19.546 198.683 18.142 196.667 18.142Z" fill="white"/>
<path d="M203.015 16.738C203.591 16.738 204.059 16.27 204.059 15.694C204.059 15.118 203.591 14.632 203.015 14.632C202.421 14.632 201.953 15.118 201.953 15.694C201.953 16.27 202.421 16.738 203.015 16.738ZM203.789 27.376V18.376H202.223V27.376H203.789Z" fill="white"/>
</g>
<defs>
<filter id="filter0_d_1_64" x="0" y="0" width="222.059" height="53.2215" filterUnits="userSpaceOnUse" color-interpolation-filters="sRGB">
<feFlood flood-opacity="0" result="BackgroundImageFix"/>
<feColorMatrix in="SourceAlpha" type="matrix" values="0 0 0 0 0 0 0 0 0 0 0 0 0 0 0 0 0 0 127 0" result="hardAlpha"/>
<feOffset dy="4"/>
<feGaussianBlur stdDeviation="2"/>
<feComposite in2="hardAlpha" operator="out"/>
<feColorMatrix type="matrix" values="0 0 0 0 0 0 0 0 0 0 0 0 0 0 0 0 0 0 0.25 0"/>
<feBlend mode="normal" in2="BackgroundImageFix" result="effect1_dropShadow_1_64"/>
<feBlend mode="normal" in="SourceGraphic" in2="effect1_dropShadow_1_64" result="shape"/>
</filter>
</defs>
</svg>
