<?xml version="1.0" encoding="UTF-8"?>
<svg width="161px" height="32px" viewBox="0 0 161 32" version="1.1" xmlns="http://www.w3.org/2000/svg" xmlns:xlink="http://www.w3.org/1999/xlink">
    <!-- Generator: Sketch 51.1 (57501) - http://www.bohemiancoding.com/sketch -->
    <title>button</title>
    <desc>Created with Sketch.</desc>
    <defs></defs>
    <g id="Page-1" stroke="none" stroke-width="1" fill="none" fill-rule="evenodd">
        <g id="Button">
            <rect id="Background" fill="#512668" fill-rule="nonzero" x="0" y="0" width="161" height="32" rx="4"></rect>
            <g id="Text" transform="translate(38.000000, 10.000000)" fill="#FFFFFF">
                <path d="M50.141,10.088 C49.8983321,9.46399688 49.6405014,8.75117067 49.3675,7.9495 C49.0944986,7.14782932 48.8453345,6.313671 48.62,5.447 C48.3946655,6.313671 48.147668,7.14782932 47.879,7.9495 C47.610332,8.75117067 47.3546679,9.46399688 47.112,10.088 L46.059,10.088 C45.6603313,9.19532887 45.2703352,8.17700572 44.889,7.033 C44.5076648,5.88899428 44.1480017,4.65400663 43.81,3.328 L45.11,3.328 C45.1966671,3.73533537 45.3006661,4.17733095 45.422,4.654 C45.5433339,5.13066905 45.671166,5.60733095 45.8055,6.084 C45.939834,6.56066905 46.0806659,7.01999779 46.228,7.462 C46.3753341,7.90400221 46.5139993,8.28966502 46.644,8.619 C46.7913341,8.21166463 46.9364993,7.78050228 47.0795,7.3255 C47.2225007,6.87049772 47.3589993,6.41116899 47.489,5.9475 C47.6190006,5.48383101 47.7424994,5.02883557 47.8595,4.5825 C47.9765006,4.13616443 48.0783329,3.71800195 48.165,3.328 L49.166,3.328 C49.2440004,3.71800195 49.3393328,4.13616443 49.452,4.5825 C49.5646672,5.02883557 49.6859993,5.48383101 49.816,5.9475 C49.9460006,6.41116899 50.0824993,6.87049772 50.2255,7.3255 C50.3685007,7.78050228 50.5136659,8.21166463 50.661,8.619 C50.7910007,8.28966502 50.9274993,7.90400221 51.0705,7.462 C51.2135007,7.01999779 51.3543326,6.56066905 51.493,6.084 C51.6316674,5.60733095 51.7616661,5.13066905 51.883,4.654 C52.0043339,4.17733095 52.1083329,3.73533537 52.195,3.328 L53.443,3.328 C53.1049983,4.65400663 52.7453352,5.88899428 52.364,7.033 C51.9826648,8.17700572 51.5926687,9.19532887 51.194,10.088 L50.141,10.088 Z M55.926,10.088 L54.717,10.088 L54.717,3.328 L55.926,3.328 L55.926,10.088 Z M55.315,2.106 C55.0983322,2.106 54.9141674,2.03450071 54.7625,1.8915 C54.6108326,1.74849928 54.535,1.55566788 54.535,1.313 C54.535,1.07033212 54.6108326,0.877500715 54.7625,0.7345 C54.9141674,0.591499285 55.0983322,0.52 55.315,0.52 C55.5316677,0.52 55.7158326,0.591499285 55.8675,0.7345 C56.0191674,0.877500715 56.095,1.07033212 56.095,1.313 C56.095,1.55566788 56.0191674,1.74849928 55.8675,1.8915 C55.7158326,2.03450071 55.5316677,2.106 55.315,2.106 Z M59.137,3.328 L61.698,3.328 L61.698,4.342 L59.137,4.342 L59.137,7.462 C59.137,7.80000169 59.1629997,8.07949889 59.215,8.3005 C59.2670003,8.5215011 59.3449995,8.6948327 59.449,8.8205 C59.5530005,8.9461673 59.6829992,9.03499974 59.839,9.087 C59.9950008,9.13900026 60.176999,9.165 60.385,9.165 C60.7490018,9.165 61.0414989,9.12383374 61.2625,9.0415 C61.4835011,8.95916626 61.6373329,8.90066684 61.724,8.866 L61.958,9.867 C61.8366661,9.92766697 61.6243348,10.0034995 61.321,10.0945 C61.0176651,10.1855005 60.671002,10.231 60.281,10.231 C59.8216644,10.231 59.4425015,10.1725006 59.1435,10.0555 C58.8444985,9.93849941 58.6040009,9.76300117 58.422,9.529 C58.2399991,9.29499883 58.112167,9.00683505 58.0385,8.6645 C57.964833,8.32216495 57.928,7.92566892 57.928,7.475 L57.928,1.443 L59.137,1.235 L59.137,3.328 Z M63.232,10.088 L63.232,0.208 L64.441,0 L64.441,3.458 C64.6663345,3.3713329 64.9068321,3.3041669 65.1625,3.2565 C65.4181679,3.20883309 65.6716654,3.185 65.923,3.185 C66.460336,3.185 66.9066649,3.26083257 67.262,3.4125 C67.6173351,3.56416742 67.9011656,3.77649863 68.1135,4.0495 C68.3258344,4.32250136 68.4753329,4.64966476 68.562,5.031 C68.6486671,5.41233524 68.692,5.83266437 68.692,6.292 L68.692,10.088 L67.483,10.088 L67.483,6.552 C67.483,6.13599792 67.4548336,5.78066814 67.3985,5.486 C67.3421664,5.19133186 67.2490006,4.95300091 67.119,4.771 C66.9889993,4.58899909 66.8156677,4.45683374 66.599,4.3745 C66.3823322,4.29216625 66.1136683,4.251 65.793,4.251 C65.6629993,4.251 65.5286674,4.25966658 65.39,4.277 C65.2513326,4.29433342 65.1191673,4.31383322 64.9935,4.3355 C64.8678327,4.35716677 64.7551672,4.38099987 64.6555,4.407 C64.5558328,4.43300013 64.4843335,4.45466658 64.441,4.472 L64.441,10.088 L63.232,10.088 Z M76.128,0.988 C77.3933397,0.988 78.3661633,1.22849759 79.0465,1.7095 C79.7268367,2.1905024 80.067,2.9076619 80.067,3.861 C80.067,4.3810026 79.9738343,4.82516483 79.7875,5.1935 C79.6011657,5.56183517 79.3325018,5.86083218 78.9815,6.0905 C78.6304982,6.32016781 78.2036692,6.48699948 77.701,6.591 C77.1983308,6.69500052 76.6306698,6.747 75.998,6.747 L74.997,6.747 L74.997,10.088 L73.736,10.088 L73.736,1.209 C74.0913351,1.1223329 74.4878311,1.06383348 74.9255,1.0335 C75.3631689,1.00316651 75.7639982,0.988 76.128,0.988 Z M76.232,2.093 C75.694664,2.093 75.2830014,2.10599987 74.997,2.132 L74.997,5.668 L75.946,5.668 C76.3793355,5.668 76.7693316,5.63983361 77.116,5.5835 C77.4626684,5.52716638 77.7551655,5.431834 77.9935,5.2975 C78.2318345,5.16316599 78.4159993,4.97900117 78.546,4.745 C78.6760006,4.51099883 78.741,4.21200182 78.741,3.848 C78.741,3.5013316 78.673834,3.21533446 78.5395,2.99 C78.405166,2.76466554 78.2231678,2.584834 77.9935,2.4505 C77.7638322,2.316166 77.4973348,2.22300026 77.194,2.171 C76.8906651,2.11899974 76.5700017,2.093 76.232,2.093 Z M86.944,9.893 C86.6666653,9.96233368 86.3005023,10.0359996 85.8455,10.114 C85.3904977,10.1920004 84.864003,10.231 84.266,10.231 C83.7459974,10.231 83.3083351,10.1551674 82.953,10.0035 C82.5976649,9.85183258 82.3116677,9.63733472 82.095,9.36 C81.8783322,9.08266528 81.7223338,8.75550188 81.627,8.3785 C81.5316662,8.00149812 81.484,7.58333563 81.484,7.124 L81.484,3.328 L82.693,3.328 L82.693,6.864 C82.693,7.68733745 82.8229987,8.27666489 83.083,8.632 C83.3430013,8.98733511 83.7806636,9.165 84.396,9.165 C84.5260006,9.165 84.6603326,9.16066671 84.799,9.152 C84.9376674,9.14333329 85.0676661,9.13250006 85.189,9.1195 C85.3103339,9.10649993 85.4208328,9.09350006 85.5205,9.0805 C85.6201672,9.06749994 85.6916664,9.05233342 85.735,9.035 L85.735,3.328 L86.944,3.328 L86.944,9.893 Z M91.052,10.218 C90.3066629,10.2006666 89.7780016,10.0403348 89.466,9.737 C89.1539984,9.43366515 88.998,8.96133654 88.998,8.32 L88.998,0.208 L90.207,0 L90.207,8.125 C90.207,8.32433433 90.2243332,8.48899935 90.259,8.619 C90.2936668,8.74900065 90.3499996,8.85299961 90.428,8.931 C90.5060004,9.00900039 90.6099993,9.06749981 90.74,9.1065 C90.8700006,9.14550019 91.0303324,9.17799987 91.221,9.204 L91.052,10.218 Z M97.955,9.893 C97.6776653,9.96233368 97.3115023,10.0359996 96.8565,10.114 C96.4014977,10.1920004 95.875003,10.231 95.277,10.231 C94.7569974,10.231 94.3193351,10.1551674 93.964,10.0035 C93.6086649,9.85183258 93.3226677,9.63733472 93.106,9.36 C92.8893322,9.08266528 92.7333338,8.75550188 92.638,8.3785 C92.5426662,8.00149812 92.495,7.58333563 92.495,7.124 L92.495,3.328 L93.704,3.328 L93.704,6.864 C93.704,7.68733745 93.8339987,8.27666489 94.094,8.632 C94.3540013,8.98733511 94.7916636,9.165 95.407,9.165 C95.5370006,9.165 95.6713326,9.16066671 95.81,9.152 C95.9486674,9.14333329 96.0786661,9.13250006 96.2,9.1195 C96.3213339,9.10649993 96.4318328,9.09350006 96.5315,9.0805 C96.6311672,9.06749994 96.7026664,9.05233342 96.746,9.035 L96.746,3.328 L97.955,3.328 L97.955,9.893 Z M100.035,3.523 C100.312335,3.45366632 100.678498,3.38000039 101.1335,3.302 C101.588502,3.22399961 102.114997,3.185 102.713,3.185 C103.146335,3.185 103.510332,3.24349941 103.805,3.3605 C104.099668,3.47750058 104.346666,3.64866554 104.546,3.874 C104.606667,3.83066645 104.701999,3.77000039 104.832,3.692 C104.962001,3.61399961 105.122332,3.53816704 105.313,3.4645 C105.503668,3.39083296 105.715999,3.32583361 105.95,3.2695 C106.184001,3.21316639 106.435332,3.185 106.704,3.185 C107.224003,3.185 107.648665,3.26083257 107.978,3.4125 C108.307335,3.56416742 108.565166,3.77866528 108.7515,4.056 C108.937834,4.33333472 109.0635,4.66266476 109.1285,5.044 C109.1935,5.42533524 109.226,5.84133108 109.226,6.292 L109.226,10.088 L108.017,10.088 L108.017,6.552 C108.017,6.15333134 107.9975,5.81100143 107.9585,5.525 C107.9195,5.23899857 107.845834,5.00066762 107.7375,4.81 C107.629166,4.61933238 107.481834,4.47850046 107.2955,4.3875 C107.109166,4.29649954 106.868668,4.251 106.574,4.251 C106.166665,4.251 105.830835,4.30516612 105.5665,4.4135 C105.302165,4.52183387 105.122334,4.6193329 105.027,4.706 C105.096334,4.93133446 105.148333,5.17833199 105.183,5.447 C105.217667,5.71566801 105.235,5.99733186 105.235,6.292 L105.235,10.088 L104.026,10.088 L104.026,6.552 C104.026,6.15333134 104.004334,5.81100143 103.961,5.525 C103.917666,5.23899857 103.841834,5.00066762 103.7335,4.81 C103.625166,4.61933238 103.477834,4.47850046 103.2915,4.3875 C103.105166,4.29649954 102.869001,4.251 102.583,4.251 C102.461666,4.251 102.331667,4.25533329 102.193,4.264 C102.054333,4.27266671 101.922167,4.28349994 101.7965,4.2965 C101.670833,4.30950006 101.556001,4.32466658 101.452,4.342 C101.347999,4.35933342 101.278667,4.37233329 101.244,4.381 L101.244,10.088 L100.035,10.088 L100.035,3.523 Z M112.437,10.088 L111.228,10.088 L111.228,3.328 L112.437,3.328 L112.437,10.088 Z M111.826,2.106 C111.609332,2.106 111.425167,2.03450071 111.2735,1.8915 C111.121833,1.74849928 111.046,1.55566788 111.046,1.313 C111.046,1.07033212 111.121833,0.877500715 111.2735,0.7345 C111.425167,0.591499285 111.609332,0.52 111.826,0.52 C112.042668,0.52 112.226833,0.591499285 112.3785,0.7345 C112.530167,0.877500715 112.606,1.07033212 112.606,1.313 C112.606,1.55566788 112.530167,1.74849928 112.3785,1.8915 C112.226833,2.03450071 112.042668,2.106 111.826,2.106 Z" id="with-Pulumi" fill-opacity="0.6"></path>
                <path d="M7.397,5.577 C7.397,6.3570039 7.27566788,7.03516379 7.033,7.6115 C6.79033212,8.18783621 6.44800221,8.66449812 6.006,9.0415 C5.56399779,9.41850188 5.03533641,9.70016573 4.42,9.8865 C3.80466359,10.0728343 3.12867035,10.166 2.392,10.166 C2.02799818,10.166 1.62716885,10.1508335 1.1895,10.1205 C0.751831145,10.0901665 0.35533511,10.0316671 0,9.945 L0,1.209 C0.35533511,1.1223329 0.751831145,1.06383348 1.1895,1.0335 C1.62716885,1.00316651 2.02799818,0.988 2.392,0.988 C3.12867035,0.988 3.80466359,1.08116574 4.42,1.2675 C5.03533641,1.45383426 5.56399779,1.73549811 6.006,2.1125 C6.44800221,2.48950188 6.79033212,2.96616378 7.033,3.5425 C7.27566788,4.11883621 7.397,4.7969961 7.397,5.577 Z M2.496,9.061 C3.69200598,9.061 4.58466372,8.75550305 5.174,8.1445 C5.76333628,7.53349694 6.058,6.67767217 6.058,5.577 C6.058,4.47632783 5.76333628,3.62050305 5.174,3.0095 C4.58466372,2.39849694 3.69200598,2.093 2.496,2.093 C2.14066489,2.093 1.86550097,2.09733329 1.6705,2.106 C1.47549902,2.11466671 1.33900039,2.12333329 1.261,2.132 L1.261,9.022 C1.33900039,9.03066671 1.47549902,9.03933329 1.6705,9.048 C1.86550097,9.05666671 2.14066489,9.061 2.496,9.061 Z M8.814,6.721 C8.814,6.12299701 8.9006658,5.60083557 9.074,5.1545 C9.2473342,4.70816443 9.47699857,4.33766814 9.763,4.043 C10.0490014,3.74833186 10.3783315,3.52733407 10.751,3.38 C11.1236685,3.23266593 11.504998,3.159 11.895,3.159 C12.8050045,3.159 13.5026642,3.44283049 13.988,4.0105 C14.4733358,4.57816951 14.716,5.44266086 14.716,6.604 L14.716,6.8055 C14.716,6.88783374 14.7116667,6.96366632 14.703,7.033 L10.075,7.033 C10.1270003,7.73500351 10.3306649,8.26799818 10.686,8.632 C11.0413351,8.99600182 11.5959962,9.178 12.35,9.178 C12.7746688,9.178 13.1321652,9.14116703 13.4225,9.0675 C13.7128348,8.99383296 13.9316659,8.92233368 14.079,8.853 L14.248,9.867 C14.1006659,9.94500039 13.8428352,10.0273329 13.4745,10.114 C13.1061648,10.2006671 12.6880023,10.244 12.22,10.244 C11.6306637,10.244 11.1215021,10.1551676 10.6925,9.9775 C10.2634979,9.79983244 9.91033472,9.55500156 9.633,9.243 C9.35566528,8.93099844 9.14983401,8.56050214 9.0155,8.1315 C8.88116599,7.70249785 8.814,7.23233589 8.814,6.721 Z M13.455,6.058 C13.4636667,5.51199727 13.3271681,5.06350175 13.0455,4.7125 C12.7638319,4.36149825 12.3760025,4.186 11.882,4.186 C11.6046653,4.186 11.3598344,4.24016612 11.1475,4.3485 C10.9351656,4.45683387 10.7553341,4.5976658 10.608,4.771 C10.4606659,4.9443342 10.3458337,5.14366554 10.2635,5.369 C10.1811663,5.59433446 10.1270001,5.82399883 10.101,6.058 L13.455,6.058 Z M21.151,6.721 C21.151,5.93232939 20.9560019,5.32566879 20.566,4.901 C20.175998,4.47633121 19.6560032,4.264 19.006,4.264 C18.6419982,4.264 18.3581677,4.27699987 18.1545,4.303 C17.9508323,4.32900013 17.7883339,4.35933316 17.667,4.394 L17.667,8.658 C17.8143341,8.77933394 18.0266653,8.89633277 18.304,9.009 C18.5813347,9.12166723 18.884665,9.178 19.214,9.178 C19.5606684,9.178 19.8574988,9.11516729 20.1045,8.9895 C20.3515012,8.8638327 20.5529992,8.6905011 20.709,8.4695 C20.8650008,8.2484989 20.9776663,7.98850149 21.047,7.6895 C21.1163337,7.3904985 21.151,7.0676684 21.151,6.721 Z M22.412,6.721 C22.412,7.23233589 22.344834,7.7046645 22.2105,8.138 C22.076166,8.5713355 21.8790013,8.94399844 21.619,9.256 C21.3589987,9.56800156 21.0405019,9.8106658 20.6635,9.984 C20.2864981,10.1573342 19.8553358,10.244 19.37,10.244 C18.979998,10.244 18.6355015,10.1920005 18.3365,10.088 C18.0374985,9.98399948 17.8143341,9.88433381 17.667,9.789 L17.667,12.493 L16.458,12.493 L16.458,3.536 C16.7440014,3.46666632 17.1014979,3.39083375 17.5305,3.3085 C17.9595021,3.22616625 18.4556638,3.185 19.019,3.185 C19.5390026,3.185 20.0069979,3.26733251 20.423,3.432 C20.8390021,3.59666749 21.1943319,3.83066515 21.489,4.134 C21.7836681,4.43733485 22.0111659,4.80783114 22.1715,5.2455 C22.3318341,5.68316885 22.412,6.17499727 22.412,6.721 Z M26.143,10.218 C25.3976629,10.2006666 24.8690016,10.0403348 24.557,9.737 C24.2449984,9.43366515 24.089,8.96133654 24.089,8.32 L24.089,0.208 L25.298,0 L25.298,8.125 C25.298,8.32433433 25.3153332,8.48899935 25.35,8.619 C25.3846668,8.74900065 25.4409996,8.85299961 25.519,8.931 C25.5970004,9.00900039 25.7009993,9.06749981 25.831,9.1065 C25.9610006,9.14550019 26.1213324,9.17799987 26.312,9.204 L26.143,10.218 Z M33.631,6.708 C33.631,7.24533602 33.5530008,7.7306645 33.397,8.164 C33.2409992,8.5973355 33.0221681,8.96999844 32.7405,9.282 C32.4588319,9.59400156 32.123002,9.83449916 31.733,10.0035 C31.342998,10.1725008 30.9183356,10.257 30.459,10.257 C29.9996644,10.257 29.575002,10.1725008 29.185,10.0035 C28.794998,9.83449916 28.4591681,9.59400156 28.1775,9.282 C27.8958319,8.96999844 27.6770008,8.5973355 27.521,8.164 C27.3649992,7.7306645 27.287,7.24533602 27.287,6.708 C27.287,6.17933069 27.3649992,5.69616885 27.521,5.2585 C27.6770008,4.82083114 27.8958319,4.44600156 28.1775,4.134 C28.4591681,3.82199844 28.794998,3.58150084 29.185,3.4125 C29.575002,3.24349915 29.9996644,3.159 30.459,3.159 C30.9183356,3.159 31.342998,3.24349915 31.733,3.4125 C32.123002,3.58150084 32.4588319,3.82199844 32.7405,4.134 C33.0221681,4.44600156 33.2409992,4.82083114 33.397,5.2585 C33.5530008,5.69616885 33.631,6.17933069 33.631,6.708 Z M32.37,6.708 C32.37,5.94532952 32.198835,5.34083557 31.8565,4.8945 C31.514165,4.44816443 31.0483363,4.225 30.459,4.225 C29.8696637,4.225 29.403835,4.44816443 29.0615,4.8945 C28.719165,5.34083557 28.548,5.94532952 28.548,6.708 C28.548,7.47067048 28.719165,8.07516443 29.0615,8.5215 C29.403835,8.96783556 29.8696637,9.191 30.459,9.191 C31.0483363,9.191 31.514165,8.96783556 31.8565,8.5215 C32.198835,8.07516443 32.37,7.47067048 32.37,6.708 Z M34.359,11.349 C34.4543338,11.3923335 34.5778326,11.4334998 34.7295,11.4725 C34.8811674,11.5115002 35.0306659,11.531 35.178,11.531 C35.654669,11.531 36.027332,11.4248344 36.296,11.2125 C36.564668,11.0001656 36.8073322,10.655669 37.024,10.179 C36.4779973,9.1389948 35.9688357,8.03617249 35.4965,6.8705 C35.0241643,5.7048275 34.6320016,4.52400598 34.32,3.328 L35.62,3.328 C35.7153338,3.71800195 35.830166,4.13833108 35.9645,4.589 C36.098834,5.03966892 36.2483325,5.50333095 36.413,5.98 C36.5776675,6.45666905 36.7553324,6.93333095 36.946,7.41 C37.1366676,7.88666905 37.335999,8.34599779 37.544,8.788 C37.873335,7.87799545 38.1593321,6.97667113 38.402,6.084 C38.6446679,5.19132887 38.8743322,4.27267139 39.091,3.328 L40.339,3.328 C40.0269984,4.60200637 39.6803352,5.82616079 39.299,7.0005 C38.9176648,8.17483921 38.5060022,9.27332822 38.064,10.296 C37.8906658,10.6860019 37.7108343,11.0218319 37.5245,11.3035 C37.3381657,11.5851681 37.1323345,11.8169991 36.907,11.999 C36.6816655,12.1810009 36.4281681,12.3153329 36.1465,12.402 C35.8648319,12.4886671 35.5463351,12.532 35.191,12.532 C35.0956662,12.532 34.9960005,12.5255001 34.892,12.5125 C34.7879995,12.4994999 34.6861672,12.4821668 34.5865,12.4605 C34.4868328,12.4388332 34.3958337,12.4150001 34.3135,12.389 C34.2311663,12.3629999 34.1726668,12.3413334 34.138,12.324 L34.359,11.349 Z" id="Deploy"></path>
            </g>
            <g id="Icon" transform="translate(10.000000, 8.000000)" fill-rule="nonzero">
                <path d="M10.0341944,16 C9.69658677,16 9.35699686,15.9781769 9.02471661,15.9352831 L9.00080532,15.9320222 C8.61909188,15.8780914 8.35284645,15.5211451 8.40612031,15.1348504 C8.45939418,14.7488066 8.81199283,14.4795291 9.19234344,14.5327073 C9.19581244,14.5330836 9.20783003,14.5347141 9.20956453,14.5349649 C9.47543828,14.5693301 9.75555969,14.5872652 10.0341944,14.5872652 C11.5605526,14.5872652 13.0447872,14.0404325 14.213591,13.047605 C14.3328997,12.9462653 14.4821904,12.8881957 14.6379236,12.8826772 C16.8621694,12.8046657 18.6044726,10.9780438 18.6044726,8.72424008 C18.6044726,7.96130808 18.3990584,7.21555868 18.0102831,6.56751172 C17.9306201,6.43469157 17.8964257,6.2789195 17.9130273,6.12440163 C17.9285139,5.98016822 17.9364431,5.83756529 17.9364431,5.70035542 C17.9364431,3.56770778 16.2226352,1.83276759 14.1160875,1.83276759 C13.7649756,1.83276759 13.4142353,1.88218321 13.0736542,1.97976024 C12.9195317,2.02378277 12.7546305,2.01312205 12.607446,1.94878141 C11.7924797,1.59308931 10.9267175,1.41273484 10.0341944,1.41273484 C7.19754694,1.41273484 4.70829462,3.2483871 3.83980673,5.9805445 C3.76745339,6.20830785 3.58619836,6.38339467 3.35811188,6.44597941 C2.20256459,6.76279122 1.39552747,7.83137261 1.39552747,9.04431281 C1.39552747,10.371511 2.37180202,11.5165988 3.66635694,11.7081156 C3.69373723,11.7121291 3.72074584,11.7157663 3.74800224,11.7190272 C4.13083071,11.7640531 4.40500527,12.1147284 4.36040389,12.5022773 C4.31592642,12.8897007 3.96964629,13.1677577 3.58669393,13.1222301 C3.54580934,13.1174641 3.50492475,13.112071 3.46441182,13.1059254 C1.48943815,12.8139468 0,11.0677193 0,9.0443128 C0,7.32467438 1.06423837,5.79542404 2.6303661,5.20068074 C3.77996654,2.07495428 6.71089636,0 10.0341944,0 C11.0362386,0 12.0110264,0.187378007 12.9352661,0.557493456 C13.3231741,0.466187441 13.7192591,0.420032752 14.1160875,0.420032752 C16.9921328,0.420032752 19.3319705,2.78872149 19.3319705,5.70035541 C19.3319705,5.81197952 19.3282537,5.92561035 19.3208202,6.04036998 C19.7658428,6.8596157 20,7.78245864 20,8.72424005 C20,11.6614592 17.7907452,14.0569879 14.9270891,14.2809887 C13.5372607,15.3912096 11.8090814,16 10.0341944,16 Z" id="Shape" fill="#EE985D"></path>
                <path d="M10.9999995,3 C8.24296984,3 6,5.27495521 6,8.0713015 L6,16.0715647 C6,16.5842807 6.40987426,17 6.91538153,17 C7.4208888,17 7.83076306,16.5842807 7.83076306,16.0715647 L7.83076306,8.07130151 C7.83076306,6.29881015 9.25242937,4.85687016 10.9999995,4.85687016 C12.7475696,4.85687016 14.1692359,6.29881015 14.1692359,8.07130151 C14.1692359,9.84379288 12.7475696,11.2857329 10.9999995,11.2857329 C10.4944922,11.2857329 10.084618,11.7014521 10.084618,12.2141682 C10.084618,12.7268843 10.4944922,13.1426035 10.9999995,13.1426035 C13.7570292,13.1426035 16,10.8676478 16,8.07130151 C16,5.27495521 13.7570291,3 10.9999995,3 Z" id="Shape" fill="#FFFFFF"></path>
            </g>
        </g>
    </g>
</svg>