<svg width="164" height="32" viewBox="0 0 164 32" fill="none" xmlns="http://www.w3.org/2000/svg">
<path d="M159.925 0H4.07453C1.82423 0 0 1.79086 0 4V28C0 30.2091 1.82423 32 4.07453 32H159.925C162.176 32 164 30.2091 164 28V4C164 1.79086 162.176 0 159.925 0Z" fill="#2F3032"/>
<path d="M11.9897 22.4286C12.7038 22.0149 12.705 20.6756 11.9924 19.4371C11.2797 18.1987 10.1231 17.5301 9.40899 17.9437C8.69487 18.3574 8.69368 19.6967 9.40634 20.9352C10.119 22.1736 11.2756 22.8423 11.9897 22.4286Z" fill="#F26E7E"/>
<path d="M26.5953 20.9361C27.308 19.6977 27.3068 18.3584 26.5927 17.9447C25.8786 17.531 24.7219 18.1996 24.0092 19.4381C23.2967 20.6765 23.2978 22.0158 24.012 22.4295C24.726 22.8432 25.8827 22.1747 26.5953 20.9361Z" fill="#8A3391"/>
<path d="M16.8562 25.2508C17.5703 24.8371 17.5715 23.4978 16.8589 22.2594C16.1462 21.0209 14.9896 20.3523 14.2755 20.766C13.5614 21.1796 13.5602 22.519 14.2729 23.7574C14.9855 24.996 16.1421 25.6645 16.8562 25.2508Z" fill="#F26E7E"/>
<path d="M21.7298 23.7545C22.4425 22.5161 22.4414 21.1768 21.7272 20.7631C21.0131 20.3494 19.8564 21.0179 19.1438 22.2565C18.4312 23.4949 18.4324 24.8343 19.1465 25.2479C19.8606 25.6616 21.0172 24.993 21.7298 23.7545Z" fill="#8A3391"/>
<path d="M17.9977 8.99622C19.423 8.99622 20.5784 8.3255 20.5784 7.49812C20.5784 6.67073 19.423 6 17.9977 6C16.5724 6 15.4169 6.67073 15.4169 7.49812C15.4169 8.3255 16.5724 8.99622 17.9977 8.99622Z" fill="#F7BF2A"/>
<path d="M11.988 16.785C12.7021 16.3713 12.7033 15.032 11.9907 13.7935C11.278 12.5551 10.1214 11.8865 9.40727 12.3002C8.69316 12.7139 8.69197 14.0532 9.40462 15.2917C10.1173 16.5301 11.2739 17.1987 11.988 16.785Z" fill="#F26E7E"/>
<path d="M13.1323 11.8117C14.5576 11.8117 15.7131 11.1409 15.7131 10.3135C15.7131 9.48616 14.5576 8.81543 13.1323 8.81543C11.707 8.81543 10.5516 9.48616 10.5516 10.3135C10.5516 11.1409 11.707 11.8117 13.1323 11.8117Z" fill="#F7BF2A"/>
<path d="M26.5926 15.2946C27.3052 14.0561 27.304 12.7168 26.59 12.3031C25.8758 11.8894 24.7192 12.558 24.0066 13.7965C23.2939 15.0349 23.2951 16.3743 24.0092 16.788C24.7234 17.2016 25.8799 16.533 26.5926 15.2946Z" fill="#8A3391"/>
<path d="M22.8696 11.8117C24.2948 11.8117 25.4503 11.1409 25.4503 10.3135C25.4503 9.48616 24.2948 8.81543 22.8696 8.81543C21.4443 8.81543 20.2889 9.48616 20.2889 10.3135C20.2889 11.1409 21.4443 11.8117 22.8696 11.8117Z" fill="#F7BF2A"/>
<path d="M16.8546 19.6083C17.5687 19.1945 17.5699 17.8552 16.8572 16.6168C16.1446 15.3783 14.988 14.7097 14.2739 15.1234C13.5597 15.5371 13.5585 16.8764 14.2712 18.1149C14.9839 19.3534 16.1405 20.022 16.8546 19.6083Z" fill="#F26E7E"/>
<path d="M21.7271 18.1129C22.4397 16.8745 22.4385 15.5352 21.7244 15.1215C21.0103 14.7078 19.8536 15.3764 19.141 16.6148C18.4284 17.8533 18.4295 19.1926 19.1437 19.6063C19.8577 20.02 21.0144 19.3514 21.7271 18.1129Z" fill="#8A3391"/>
<path d="M17.9977 14.6339C19.423 14.6339 20.5784 13.9632 20.5784 13.1358C20.5784 12.3084 19.423 11.6377 17.9977 11.6377C16.5724 11.6377 15.4169 12.3084 15.4169 13.1358C15.4169 13.9632 16.5724 14.6339 17.9977 14.6339Z" fill="#F7BF2A"/>
<path d="M35.2512 10.42V20.22H39.0732C40.4032 20.22 41.5092 19.744 42.3912 18.806C43.2732 17.854 43.7212 16.692 43.7212 15.32C43.7212 13.948 43.2732 12.786 42.3912 11.848C41.5092 10.896 40.4032 10.42 39.0732 10.42H35.2512ZM36.5532 18.988V11.652H39.0732C40.0672 11.652 40.8932 12.002 41.5232 12.702C42.1532 13.402 42.4752 14.27 42.4752 15.32C42.4752 16.37 42.1532 17.238 41.5232 17.938C40.8932 18.638 40.0672 18.988 39.0732 18.988H36.5532Z" fill="#F9F9FA"/>
<path d="M51.894 17.28C51.922 17.098 51.936 16.916 51.936 16.734C51.936 15.712 51.614 14.844 50.956 14.13C50.312 13.402 49.472 13.038 48.45 13.038C47.372 13.038 46.49 13.388 45.804 14.088C45.118 14.788 44.782 15.67 44.782 16.72C44.782 17.784 45.132 18.666 45.818 19.366C46.518 20.052 47.428 20.402 48.534 20.402C49.906 20.402 50.928 19.87 51.614 18.82L50.578 18.232C50.158 18.918 49.486 19.254 48.562 19.254C47.232 19.254 46.266 18.526 46.028 17.28H51.894ZM48.45 14.186C49.57 14.186 50.494 14.886 50.704 16.216H46.028C46.238 14.984 47.148 14.186 48.45 14.186Z" fill="#F9F9FA"/>
<path d="M57.2001 13.038C56.0381 13.038 55.1561 13.5 54.5541 14.424V13.22H53.3361V23.02H54.5541V19.016C55.1561 19.94 56.0381 20.402 57.2001 20.402C58.1801 20.402 59.0201 20.052 59.7061 19.338C60.3921 18.624 60.7421 17.742 60.7421 16.72C60.7421 15.698 60.3921 14.83 59.7061 14.116C59.0201 13.402 58.1801 13.038 57.2001 13.038ZM57.0461 19.226C56.3321 19.226 55.7441 18.988 55.2681 18.512C54.7921 18.022 54.5541 17.434 54.5541 16.72C54.5541 16.006 54.7921 15.418 55.2681 14.942C55.7441 14.452 56.3321 14.214 57.0461 14.214C57.7461 14.214 58.3341 14.452 58.8101 14.942C59.2861 15.418 59.5241 16.006 59.5241 16.72C59.5241 17.434 59.2861 18.022 58.8101 18.512C58.3341 18.988 57.7461 19.226 57.0461 19.226Z" fill="#F9F9FA"/>
<path d="M63.4135 20.22V10H62.1955V20.22H63.4135Z" fill="#F9F9FA"/>
<path d="M71.1796 19.338C71.8936 18.624 72.2576 17.756 72.2576 16.72C72.2576 15.684 71.8936 14.816 71.1796 14.102C70.4656 13.388 69.5836 13.038 68.5616 13.038C67.5396 13.038 66.6576 13.388 65.9436 14.102C65.2296 14.816 64.8796 15.684 64.8796 16.72C64.8796 17.756 65.2296 18.624 65.9436 19.338C66.6576 20.052 67.5396 20.402 68.5616 20.402C69.5836 20.402 70.4656 20.052 71.1796 19.338ZM68.5616 19.212C67.8756 19.212 67.2876 18.974 66.8116 18.498C66.3356 18.022 66.0976 17.434 66.0976 16.72C66.0976 16.006 66.3356 15.418 66.8116 14.942C67.2876 14.466 67.8756 14.228 68.5616 14.228C69.2616 14.228 69.8496 14.466 70.3256 14.942C70.8016 15.418 71.0396 16.006 71.0396 16.72C71.0396 17.434 70.8016 18.022 70.3256 18.498C69.8496 18.974 69.2616 19.212 68.5616 19.212Z" fill="#F9F9FA"/>
<path d="M76.2901 18.708L73.9101 13.22H72.6081L75.6601 20.192L75.5341 20.458C75.1281 21.48 74.4981 21.956 73.6441 21.886V23.02C75.0441 23.118 76.1501 22.236 76.7521 20.654L79.6081 13.22H78.3061L76.2901 18.708Z" fill="#F9F9FA"/>
<path d="M90.8312 18.554L89.1792 13.22H88.0032L86.3512 18.54L84.8112 13.22H83.5372L85.7072 20.22H86.9532L88.5912 15.04L90.2292 20.22H91.4752L93.6452 13.22H92.3712L90.8312 18.554Z" fill="#F9F9FA"/>
<path d="M95.5146 11.946C95.9626 11.946 96.3266 11.582 96.3266 11.134C96.3266 10.686 95.9626 10.308 95.5146 10.308C95.0526 10.308 94.6886 10.686 94.6886 11.134C94.6886 11.582 95.0526 11.946 95.5146 11.946ZM96.1166 20.22V13.22H94.8986V20.22H96.1166Z" fill="#F9F9FA"/>
<path d="M101.783 13.22H99.9208V11.26L98.7028 11.624V13.22H97.3168V14.396H98.7028V18.19C98.7028 19.926 99.6548 20.5 101.783 20.22V19.128C100.537 19.184 99.9208 19.268 99.9208 18.19V14.396H101.783V13.22Z" fill="#F9F9FA"/>
<path d="M106.711 13.038C105.689 13.038 104.933 13.43 104.443 14.228V10.42H103.225V20.22H104.443V16.51C104.443 14.942 105.255 14.2 106.473 14.2C107.551 14.2 108.209 14.858 108.209 15.992V20.22H109.427V15.922C109.427 14.144 108.349 13.038 106.711 13.038Z" fill="#F9F9FA"/>
<path d="M114.753 10.42V20.22H116.055V16.72H118.309C119.219 16.72 119.961 16.412 120.563 15.81C121.165 15.208 121.473 14.452 121.473 13.57C121.473 12.674 121.165 11.932 120.563 11.33C119.961 10.728 119.219 10.42 118.309 10.42H114.753ZM116.055 15.502V11.638H118.309C119.387 11.638 120.185 12.45 120.185 13.57C120.185 14.116 120.003 14.578 119.653 14.956C119.303 15.32 118.855 15.502 118.309 15.502H116.055Z" fill="#F9F9FA"/>
<path d="M127.715 16.93C127.715 18.498 126.903 19.24 125.685 19.24C124.607 19.24 123.949 18.582 123.949 17.448V13.22H122.731V17.518C122.731 19.296 123.809 20.402 125.447 20.402C126.469 20.402 127.225 20.01 127.715 19.212V20.22H128.933V13.22H127.715V16.93Z" fill="#F9F9FA"/>
<path d="M132.005 20.22V10H130.787V20.22H132.005Z" fill="#F9F9FA"/>
<path d="M138.693 16.93C138.693 18.498 137.881 19.24 136.663 19.24C135.585 19.24 134.927 18.582 134.927 17.448V13.22H133.709V17.518C133.709 19.296 134.787 20.402 136.425 20.402C137.447 20.402 138.203 20.01 138.693 19.212V20.22H139.911V13.22H138.693V16.93Z" fill="#F9F9FA"/>
<path d="M149.326 13.038C148.346 13.038 147.618 13.43 147.128 14.228C146.694 13.43 146.008 13.038 145.07 13.038C144.16 13.038 143.46 13.416 142.984 14.158V13.22H141.766V20.22H142.984V16.328C142.984 14.914 143.754 14.2 144.776 14.2C145.686 14.2 146.26 14.83 146.26 15.908V20.22H147.478V16.328C147.478 14.886 148.15 14.2 149.2 14.2C150.138 14.2 150.74 14.83 150.74 15.908V20.22H151.958V15.866C151.958 14.13 150.894 13.038 149.326 13.038Z" fill="#F9F9FA"/>
<path d="M154.263 11.946C154.711 11.946 155.075 11.582 155.075 11.134C155.075 10.686 154.711 10.308 154.263 10.308C153.801 10.308 153.437 10.686 153.437 11.134C153.437 11.582 153.801 11.946 154.263 11.946ZM154.865 20.22V13.22H153.647V20.22H154.865Z" fill="#F9F9FA"/>
</svg>
